<svg width="100" height="23" viewBox="0 0 100 23" fill="none" xmlns="http://www.w3.org/2000/svg">
<g clip-path="url(#clip0_23_243)">
<path d="M4.85089 11.7564C4.68459 11.7481 4.51787 11.7593 4.35425 11.79C4.08123 11.834 3.81971 11.932 3.58493 12.0781C3.35015 12.2242 3.1468 12.4156 2.98672 12.6411C2.82664 12.8666 2.71305 13.1217 2.65254 13.3915C2.59204 13.6614 2.58585 13.9406 2.63432 14.2128C2.7533 15.3357 3.9504 16.2825 5.05858 16.3107C5.17232 16.3136 5.2861 16.306 5.39845 16.2881C6.59766 16.094 6.91161 14.8583 6.71396 13.6444C6.49068 12.2739 5.51387 11.7908 4.85089 11.7564ZM6.02589 15.0034C5.9753 15.0792 5.90501 15.1398 5.82261 15.1788C5.74022 15.2177 5.64879 15.2336 5.55808 15.2246C5.39866 15.212 5.24997 15.1392 5.14219 15.021C5.03438 14.9029 4.97551 14.7482 4.97749 14.5883C4.97471 14.3752 5.01581 14.1638 5.0982 13.9673C5.14967 13.8424 5.15459 13.7032 5.11215 13.575C5.06967 13.4468 4.98266 13.3381 4.86682 13.2686C4.7245 13.1804 4.55379 13.1502 4.38984 13.1842C4.23106 13.2147 4.09074 13.3067 3.99946 13.4401C3.93785 13.5397 3.88974 13.6471 3.85642 13.7594C3.84992 13.779 3.84477 13.7944 3.84085 13.8045C3.78651 13.9431 3.69981 13.9836 3.64118 13.976C3.61958 13.9721 3.59959 13.962 3.58357 13.947C3.56755 13.932 3.55619 13.9127 3.55084 13.8914C3.52043 13.7064 3.53468 13.5169 3.5924 13.3385C3.65012 13.1602 3.74965 12.9982 3.88268 12.8661C3.99853 12.7505 4.13925 12.6628 4.29413 12.6098C4.44896 12.5568 4.61387 12.5399 4.77631 12.5602C4.94686 12.5807 5.10984 12.6424 5.25123 12.74C5.39257 12.8376 5.50808 12.9681 5.5877 13.1203C5.66434 13.3035 5.6953 13.5025 5.67803 13.7003C5.66072 13.8981 5.59564 14.0887 5.48837 14.2558C5.47484 14.2847 5.4624 14.3112 5.45182 14.3348C5.41324 14.4003 5.39194 14.4745 5.38992 14.5505C5.38795 14.6264 5.4053 14.7016 5.44035 14.769C5.47123 14.8101 5.51148 14.8432 5.55782 14.8655C5.60413 14.8878 5.65513 14.8986 5.70648 14.8971C5.75556 14.8965 5.80434 14.8899 5.85182 14.8777C5.91341 14.8641 5.97711 14.85 6.01589 14.8962C6.02875 14.9107 6.03665 14.9289 6.03845 14.9482C6.04026 14.9675 6.03585 14.9868 6.02589 15.0035V15.0034Z" fill="white"/>
<path d="M20.1755 17.306C20.4257 16.6711 20.5704 15.9995 20.6037 15.3179C20.6037 14.4799 20.1292 14.1326 19.8271 14.1326C19.8179 14.1002 19.7582 13.8817 19.6758 13.6186C19.6288 13.4661 19.5729 13.3164 19.5086 13.1703C19.7558 12.8288 19.8605 12.4044 19.8003 11.987C19.7509 11.6652 19.5979 11.3683 19.3645 11.1413C18.9215 10.7652 18.3929 10.5038 17.8252 10.38C17.7397 10.3561 17.4578 10.2788 17.433 10.2712C17.4311 10.2551 17.4124 9.34806 17.3955 8.95865C17.3882 8.56819 17.33 8.18037 17.2224 7.80495C17.0886 7.26617 16.8122 6.7734 16.4221 6.37848C17.3987 5.36752 18.0084 4.2539 18.007 3.29856C18.0042 1.4613 15.7446 0.905326 12.9601 2.05675C12.957 2.05804 12.3742 2.30476 12.37 2.30688C12.3675 2.3043 11.3034 1.2619 11.2874 1.24788C8.11273 -1.51726 -1.81358 9.50025 1.36006 12.176L2.05363 12.7628C1.86647 13.2643 1.80039 13.8029 1.86077 14.3347C1.95478 15.1085 2.33727 15.8184 2.93184 16.3224C3.50894 16.8462 4.25454 17.146 5.03357 17.1675C6.26861 20.0094 9.09034 21.7528 12.3989 21.8509C15.948 21.9562 18.9272 20.2932 20.1755 17.306ZM20.904 13.9428C21.2081 14.3352 21.3645 14.8219 21.346 15.3179C21.314 16.0917 21.1522 16.8545 20.8674 17.5746L20.8606 17.5915C20.2166 19.1401 19.0922 20.441 17.6531 21.3023C16.1552 22.1736 14.4486 22.621 12.7159 22.5969H12.7155C12.6034 22.5969 12.4895 22.5952 12.3769 22.5918C10.6669 22.5561 8.99756 22.0634 7.54219 21.1647C6.26118 20.3619 5.2245 19.2236 4.54471 17.8732C3.76153 17.7516 3.03037 17.4057 2.43962 16.8773C1.70514 16.2498 1.23464 15.3682 1.12222 14.4087C1.07213 13.9426 1.09915 13.4713 1.20222 13.0139L0.880232 12.7416C0.619606 12.5165 0.407806 12.2405 0.257868 11.9305C0.10793 11.6205 0.0230253 11.283 0.00838131 10.9389C-0.0180366 10.2247 0.105395 9.51294 0.37073 8.84936C1.03169 7.04483 2.5522 4.89609 4.43836 3.10136C5.28009 2.28457 6.21382 1.5683 7.22076 0.966927C8.06063 0.42975 9.02521 0.119068 10.0207 0.06509C10.6628 0.0483442 11.2882 0.270818 11.7754 0.689305C11.8032 0.713565 12.22 1.12124 12.5362 1.43094C12.6155 1.39746 12.6726 1.37338 12.6742 1.37275C13.6096 0.965334 14.6147 0.742263 15.6346 0.715775C17.5243 0.715775 18.7468 1.72913 18.7492 3.29744C18.7507 4.26512 18.2756 5.34995 17.3997 6.40012C17.638 6.76861 17.8183 7.17151 17.9342 7.5947C18.0587 8.02798 18.1268 8.47546 18.137 8.92609C18.1455 9.11995 18.1542 9.43104 18.1612 9.70562C18.8074 9.8692 19.4045 10.1863 19.902 10.6301C20.2392 10.9647 20.4603 11.3985 20.533 11.8679C20.6061 12.3313 20.5345 12.806 20.3279 13.2272C20.3463 13.2799 20.3655 13.3372 20.3845 13.3979C20.401 13.4508 20.4166 13.5018 20.4312 13.5502C20.6131 13.6487 20.7738 13.7821 20.904 13.9428H20.904Z" fill="white"/>
<path d="M18.6542 13.0252C18.7746 12.9121 18.8684 12.7738 18.9291 12.6201C18.9898 12.4665 19.0158 12.3013 19.0052 12.1365C18.9811 11.9704 18.9036 11.8165 18.7843 11.6984C18.4345 11.408 18.0182 11.2086 17.5727 11.1182C17.3692 11.0604 17.2311 11.0234 17.0823 10.9739C16.8178 10.8859 16.687 10.815 16.6574 10.3121C16.6445 10.0922 16.6066 9.32594 16.5929 9.0093C16.5688 8.45451 16.5027 7.69615 16.0373 7.38309C15.919 7.30456 15.7813 7.2601 15.6394 7.25451C15.56 7.24964 15.4802 7.2575 15.4033 7.27787C15.1671 7.33304 14.9521 7.4559 14.7847 7.63136C14.5679 7.8293 14.3123 7.98002 14.0342 8.07393C13.756 8.16779 13.4614 8.20279 13.169 8.17674C12.8433 8.16292 12.4981 8.11166 12.1025 8.08792C12.0255 8.08338 11.9483 8.07855 11.8712 8.07447C11.3599 8.0896 10.8711 8.28796 10.4939 8.63342C10.1167 8.97888 9.8763 9.44842 9.81642 9.9564C9.58991 11.532 10.7185 12.3463 11.0443 12.8241C11.0947 12.8851 11.1259 12.9596 11.1339 13.0383C11.1255 13.1255 11.084 13.2063 11.018 13.2639L11.0181 13.2644C10.5669 13.7723 10.2501 14.3851 10.0967 15.0469C9.94327 15.7088 9.95806 16.3985 10.1397 17.053C10.1828 17.2103 10.238 17.3639 10.3049 17.5126C11.1284 19.4582 13.683 20.3643 16.1788 19.5402C16.5058 19.4323 16.8229 19.2968 17.127 19.1352C17.6742 18.8617 18.1664 18.4898 18.579 18.0382C19.2227 17.3853 19.6455 16.5469 19.7879 15.6412C19.8631 15.1397 19.7529 14.9456 19.6031 14.8523C19.4972 14.7928 19.3746 14.7701 19.2544 14.788C19.1909 14.3943 19.0794 14.01 18.9224 13.6435L18.6542 13.0252Z" fill="white"/>
<path d="M14.5642 5.51086C14.6045 5.5201 14.6301 5.45052 14.5941 5.43031C13.9978 5.12136 13.3402 4.94926 12.669 4.92653C12.6625 4.92645 12.6563 4.92455 12.6508 4.92111C12.6453 4.91766 12.6409 4.91279 12.6381 4.90699C12.6352 4.90119 12.6341 4.89472 12.6347 4.88829C12.6352 4.88187 12.6376 4.87573 12.6415 4.87056C12.7458 4.73422 12.8676 4.61216 13.0037 4.50754C13.0098 4.50279 13.0142 4.49624 13.0163 4.4888C13.0184 4.4814 13.0181 4.4735 13.0154 4.46628C13.0127 4.45905 13.0077 4.45287 13.0013 4.44867C12.9948 4.44447 12.9871 4.44241 12.9794 4.44287C12.1576 4.52359 11.3676 4.80212 10.6769 5.25464C10.671 5.25859 10.664 5.26073 10.6569 5.26069C10.6498 5.26069 10.6429 5.25855 10.637 5.25451C10.6312 5.25052 10.6266 5.24485 10.624 5.23825C10.6214 5.23161 10.6208 5.22439 10.6224 5.21745C10.678 5.00997 10.7599 4.81044 10.866 4.62367C10.8695 4.61724 10.8709 4.60989 10.8699 4.60266C10.8689 4.59544 10.8656 4.58871 10.8605 4.5835C10.8554 4.57829 10.8487 4.57485 10.8415 4.57367C10.8343 4.57254 10.8269 4.57371 10.8204 4.57708C9.82297 5.12493 8.93402 5.85031 8.19726 6.71762C8.1915 6.72422 8.18839 6.73271 8.18848 6.74145C8.18856 6.75023 8.19188 6.75863 8.19776 6.7651C8.20365 6.77161 8.21176 6.77569 8.22045 6.77661C8.22915 6.7775 8.23789 6.77519 8.24503 6.7701C9.09881 6.17346 10.0607 5.74892 11.0768 5.52014C12.2239 5.25556 13.4157 5.25237 14.5642 5.51086" fill="white"/>
<path d="M11.6263 2.6965C11.6263 2.6965 10.7622 1.69616 10.5014 1.62237C8.89666 1.18934 5.43023 3.57657 3.2169 6.73055C2.32134 8.00669 1.03931 10.2665 1.65234 11.4289C1.87023 11.6898 2.11585 11.9263 2.38488 12.1342C2.79562 11.5584 3.41378 11.1646 4.10914 11.0357C4.98183 8.59589 6.51372 6.44576 8.53468 4.82412C9.50447 4.03043 10.5385 3.31877 11.6263 2.6965Z" fill="white"/>
<path d="M5.96802 14.9601C5.98046 14.9752 5.98806 14.9936 5.98979 15.0131C5.99151 15.0326 5.98735 15.0521 5.97777 15.0692C5.93117 15.1448 5.86441 15.2058 5.78495 15.2455C5.70554 15.2852 5.61659 15.3019 5.52819 15.2937C5.37058 15.2768 5.22533 15.2006 5.12176 15.0807C5.01819 14.9607 4.96403 14.8059 4.97021 14.6475C4.96752 14.4317 5.00693 14.2174 5.08622 14.0167C5.13626 13.8909 5.14147 13.7517 5.10101 13.6225C5.0605 13.4934 4.9768 13.382 4.86395 13.3073C4.79714 13.2631 4.72214 13.2327 4.6434 13.218C4.5647 13.2032 4.48378 13.2044 4.40554 13.2215C4.32886 13.2376 4.25617 13.2689 4.19176 13.3135C4.12735 13.3581 4.07252 13.4152 4.03049 13.4813C3.97104 13.5831 3.92482 13.6921 3.89294 13.8056C3.88679 13.8255 3.88182 13.8413 3.87806 13.8514C3.82583 13.9923 3.74256 14.0333 3.68614 14.0258C3.65947 14.0221 3.62279 14.0042 3.59929 13.9398C3.56978 13.7534 3.58317 13.5627 3.63844 13.3822C3.69371 13.2018 3.7894 13.0363 3.91824 12.8984C4.02645 12.7822 4.16076 12.6934 4.31008 12.6394C4.45937 12.5854 4.61941 12.5677 4.77689 12.5878C4.94374 12.6108 5.10231 12.6747 5.23836 12.774C5.37441 12.8732 5.48374 13.0047 5.55655 13.1565C5.63029 13.3432 5.66004 13.5443 5.64348 13.7443C5.62697 13.9443 5.56462 14.1378 5.46122 14.3099C5.44815 14.3391 5.43617 14.3659 5.42609 14.3902C5.3889 14.4574 5.36853 14.5326 5.36659 14.6093C5.36466 14.6861 5.3813 14.7622 5.41508 14.8311C5.44361 14.8723 5.48193 14.9056 5.52655 14.9283C5.57117 14.951 5.62071 14.9623 5.67075 14.9611C5.71794 14.9605 5.76483 14.9538 5.81037 14.9414C5.86962 14.9275 5.93084 14.9133 5.96802 14.9601V14.9601ZM20.5719 15.3247C20.5388 16.0047 20.3951 16.6748 20.1465 17.3086C18.9063 20.2895 15.9466 21.949 12.4208 21.844C9.1339 21.7461 6.33058 20.0063 5.10365 17.1704C4.32907 17.1487 3.5881 16.8494 3.01574 16.3271C2.42449 15.8231 2.04461 15.1149 1.95166 14.3436C1.89166 13.8129 1.95729 13.2755 2.14325 12.7749L1.45421 12.1894C-1.69862 9.51919 8.16256 -1.47516 11.3166 1.28423C11.3325 1.29812 12.3895 2.33843 12.3921 2.34099C12.3963 2.33885 12.9753 2.09258 12.9783 2.09138C15.7446 0.942351 17.9894 1.49715 17.9922 3.33046C17.9937 4.2839 17.3879 5.3952 16.4177 6.40394C16.8055 6.7986 17.08 7.29024 17.2126 7.82738C17.3196 8.20209 17.3774 8.58915 17.3846 8.97881C17.4015 9.36734 17.4201 10.2725 17.422 10.2886C17.4466 10.2961 17.7267 10.3731 17.8116 10.3971C18.376 10.5209 18.9012 10.7818 19.3408 11.1568C19.5729 11.3837 19.7248 11.6799 19.7738 12.0007C19.8336 12.417 19.7297 12.8403 19.484 13.1816C19.5479 13.3274 19.6034 13.4768 19.6502 13.629C19.7318 13.8916 19.7912 14.1095 19.8004 14.1418C20.1005 14.1418 20.5719 14.4884 20.5719 15.3247ZM6.63874 13.689C6.42437 12.297 5.48558 11.8065 4.84861 11.7715C4.68874 11.763 4.5284 11.7744 4.37134 11.8055C3.23443 12.0355 2.59232 13.0056 2.71867 14.2661C2.81069 14.8315 3.09067 15.3494 3.51337 15.736C3.93608 16.1226 4.4768 16.3555 5.04815 16.3968C5.15748 16.3997 5.26685 16.392 5.3747 16.3738C6.52701 16.1767 6.82869 14.9217 6.63874 13.689ZM8.58201 4.85285C9.54508 4.06108 10.5724 3.35091 11.6533 2.72969C11.6533 2.72969 10.795 1.73149 10.5358 1.65792C8.94164 1.22566 5.49781 3.60792 3.29906 6.75524C2.40937 8.02869 1.13576 10.2839 1.7447 11.4437C1.96103 11.7041 2.20505 11.94 2.47246 12.1476C2.87958 11.5737 3.49386 11.1806 4.18549 11.0514C5.05075 8.61902 6.57243 6.4736 8.58201 4.85285ZM12.0468 15.868C12.0891 16.053 12.1805 16.2231 12.3115 16.3605C12.4425 16.4978 12.6081 16.5972 12.7909 16.6481C12.981 16.719 13.1772 16.7725 13.377 16.8078C15.8987 17.2429 18.2563 15.7967 18.7871 15.4324C18.8269 15.405 18.8532 15.4317 18.8213 15.48C18.8053 15.5057 18.7879 15.5305 18.7693 15.5544C18.1197 16.3949 16.3732 17.3682 14.101 17.3678C13.11 17.3677 12.1196 17.0175 11.7559 16.4794C11.1917 15.6444 11.7279 14.4258 12.6681 14.5528C12.6692 14.553 12.9898 14.5894 13.0799 14.5994C14.5413 14.74 16.0144 14.5035 17.3584 13.9127C18.641 13.3155 19.1256 12.6582 19.0529 12.1261C19.0286 11.9609 18.951 11.8081 18.8318 11.6911C18.481 11.4024 18.0645 11.2045 17.6191 11.115C17.4154 11.0576 17.2771 11.021 17.1282 10.9718C16.8635 10.8843 16.7326 10.8139 16.7029 10.3145C16.69 10.0961 16.6521 9.33528 16.6383 9.02083C16.6141 8.46991 16.5481 7.71684 16.0822 7.40591C15.9636 7.32785 15.8259 7.28369 15.684 7.27823C15.6044 7.27339 15.5246 7.28125 15.4475 7.30146C15.2115 7.35608 14.9964 7.47806 14.8284 7.65251C14.6107 7.84932 14.3546 7.99902 14.0763 8.09217C13.798 8.18537 13.5035 8.22003 13.2111 8.19402C12.8852 8.18041 12.5397 8.12944 12.1437 8.10587C12.0667 8.10133 11.9893 8.09654 11.9121 8.0926C11.4023 8.10596 10.9142 8.30201 10.5367 8.64499C10.1592 8.98797 9.91743 9.45512 9.85542 9.96138C9.62874 11.526 10.7584 12.3346 11.0845 12.809C11.1349 12.8694 11.1661 12.9435 11.1743 13.0218C11.1657 13.1086 11.1241 13.1887 11.0582 13.2458V13.2463C10.6071 13.7489 10.29 14.3571 10.1363 15.0147C9.98269 15.6724 9.99739 16.3581 10.1791 17.0086C10.2222 17.1647 10.2775 17.3173 10.3443 17.4649C11.1686 19.397 13.7257 20.2967 16.2238 19.4783C16.5509 19.3712 16.8684 19.2367 17.1729 19.0763C17.72 18.8051 18.2126 18.4358 18.6263 17.9868C19.2697 17.3402 19.6931 16.5073 19.8363 15.6065C19.9116 15.1084 19.8015 14.9159 19.6513 14.8231C19.5452 14.764 19.4226 14.7415 19.3024 14.7592C19.2387 14.3681 19.1271 13.9864 18.9701 13.6226C18.2566 14.161 17.4501 14.5633 16.5908 14.8095C15.5571 15.1016 14.4816 15.2183 13.4092 15.1546C12.7193 15.0987 12.2629 14.8967 12.0913 15.4563C13.1348 15.8052 14.2428 15.9183 15.3354 15.7873C15.3431 15.7865 15.3508 15.7872 15.3582 15.7894C15.3656 15.7917 15.3725 15.7953 15.3785 15.8002C15.3844 15.8051 15.3894 15.8111 15.3931 15.8179C15.3967 15.8247 15.399 15.8322 15.3997 15.8399C15.4009 15.8528 15.398 15.8658 15.3915 15.877C15.385 15.8882 15.3751 15.8971 15.3633 15.9025C15.3633 15.9025 14.0819 16.4993 12.0468 15.868ZM8.29399 6.7947C9.14155 6.19965 10.0972 5.776 11.1073 5.54747C12.2467 5.28344 13.431 5.28024 14.5718 5.53814C14.6118 5.5473 14.6373 5.47793 14.6015 5.45789C14.0095 5.14965 13.356 4.97781 12.6889 4.95503C12.6826 4.95495 12.6763 4.95306 12.6708 4.94961C12.6654 4.94617 12.661 4.94125 12.6582 4.93549C12.6554 4.92974 12.6542 4.92327 12.6548 4.91688C12.6554 4.91049 12.6578 4.90436 12.6616 4.89923C12.7652 4.76323 12.8863 4.64142 13.0216 4.53692C13.0277 4.53222 13.0321 4.52566 13.0342 4.51827C13.0362 4.51087 13.0359 4.50297 13.0332 4.49579C13.0305 4.48856 13.0256 4.48243 13.0192 4.47823C13.0127 4.47398 13.0051 4.47197 12.9974 4.47239C12.1805 4.55314 11.3955 4.83112 10.7099 5.28247C10.704 5.28642 10.6971 5.28852 10.69 5.28852C10.683 5.28852 10.6761 5.28638 10.6702 5.28234C10.6644 5.27835 10.6599 5.27272 10.6573 5.26612C10.6547 5.25953 10.6542 5.2523 10.6558 5.24541C10.711 5.03844 10.7923 4.83932 10.8978 4.65289C10.9013 4.6465 10.9026 4.63919 10.9017 4.63197C10.9007 4.62478 10.8974 4.61806 10.8923 4.61285C10.8873 4.60764 10.8807 4.60419 10.8735 4.60302C10.8663 4.60184 10.8589 4.60302 10.8525 4.60633C9.86092 5.15365 8.97777 5.87759 8.24655 6.74251C8.2408 6.74907 8.23769 6.75751 8.23777 6.76621C8.23785 6.77491 8.24117 6.78331 8.24701 6.78974C8.25285 6.79617 8.26088 6.80024 8.26953 6.80117C8.27823 6.80209 8.28693 6.79978 8.29399 6.7947ZM14.9347 12.1059C15.0037 12.1496 15.0864 12.1663 15.167 12.1529C15.2476 12.1395 15.3204 12.0969 15.3716 12.0333C15.4352 11.9102 15.3429 11.7432 15.1652 11.6602C15.0962 11.6165 15.0135 11.5998 14.9329 11.6132C14.8523 11.6267 14.7795 11.6693 14.7283 11.733C14.6646 11.856 14.7571 12.023 14.9347 12.1059ZM15.4795 10.1095C15.5221 10.3311 15.614 10.5404 15.7485 10.7217C15.8874 10.7046 16.0279 10.7046 16.1668 10.7217C16.248 10.4784 16.2551 10.2164 16.1872 9.96907C16.0868 9.51268 15.951 9.23646 15.6702 9.2794C15.3895 9.32243 15.3792 9.6531 15.4795 10.1095ZM16.0768 11.1579C16.006 11.1376 15.9306 11.1399 15.8612 11.1647C15.7918 11.1894 15.7319 11.2352 15.6899 11.2958C15.6479 11.3563 15.626 11.4285 15.6271 11.5021C15.6283 11.5758 15.6525 11.6472 15.6963 11.7064C15.7401 11.7656 15.8014 11.8096 15.8715 11.8322C15.9416 11.8547 16.0171 11.8548 16.0872 11.8323C16.1573 11.8098 16.2187 11.7659 16.2626 11.7067C16.3065 11.6476 16.3308 11.5761 16.332 11.5025C16.3421 11.4232 16.3213 11.3431 16.2737 11.2789C16.2261 11.2146 16.1555 11.1713 16.0768 11.1579Z" fill="#637695"/>
<path d="M12.9644 11.6231C13.0432 11.3427 13.0477 11.0466 12.9775 10.7639C12.8759 10.3068 12.7223 10.0456 12.4376 10.0886C12.153 10.1316 12.1456 10.5 12.2373 10.959C12.2795 11.1694 12.3617 11.3697 12.4794 11.549C12.7059 11.8651 12.8596 11.7833 12.964 11.6231H12.9644Z" fill="#637695"/>
<path d="M34.5672 10.1103C33.1959 10.1103 32.5189 11.1936 32.2062 11.8927C32.0339 12.2817 31.9846 12.5895 31.8443 12.5895C31.6424 12.5895 31.7876 12.3236 31.6252 11.7278C31.411 10.9449 30.766 10.1152 29.3971 10.1152C27.9594 10.1152 27.3414 11.3363 27.0509 12.0084C26.849 12.4663 26.849 12.5944 26.6963 12.5944C26.4748 12.5944 26.6594 12.23 26.7579 11.8016C26.8785 11.3117 26.8957 10.8021 26.8071 10.3048H24.5249V18.9266H27.6343V14.6429C27.6343 13.7959 27.9889 12.725 28.592 12.725C29.2936 12.725 29.429 13.2642 29.429 14.2613V18.9365H32.5557V14.6429C32.5557 13.8895 32.8609 12.725 33.5158 12.725C34.2248 12.725 34.3479 13.4833 34.3479 14.2613V18.934H37.4204V13.86C37.4228 11.6098 36.6325 10.1105 34.567 10.1105L34.5672 10.1103Z" fill="#637695"/>
<path d="M87.4263 10.1103C86.0574 10.1103 85.378 11.1936 85.0679 11.8927C84.8931 12.2817 84.8465 12.5895 84.7036 12.5895C84.504 12.5895 84.6397 12.2497 84.4868 11.7278C84.2578 10.9498 83.6893 10.1152 82.2586 10.1152C80.8259 10.1152 80.2032 11.3363 79.9103 12.0084C79.7107 12.4663 79.7107 12.5944 79.5582 12.5944C79.3339 12.5944 79.5187 12.23 79.6196 11.8016C79.7402 11.3117 79.7549 10.8021 79.6662 10.3048H77.3843V18.9266H80.496V14.6429C80.496 13.7959 80.8481 12.725 81.4511 12.725C82.1481 12.725 82.2906 13.2642 82.2906 14.2613V18.9365H85.4149V14.6429C85.4149 13.8895 85.7225 12.725 86.3776 12.725C87.0792 12.725 87.2095 13.4833 87.2095 14.2613V18.934H90.2797V13.86C90.2822 11.6098 89.4944 10.1105 87.4263 10.1105V10.1103Z" fill="#637695"/>
<path d="M42.7405 10.1129C41.3273 10.1055 39.929 10.4059 38.6414 10.9918V13.5842C38.6414 13.5842 40.5321 12.4911 42.0661 12.4911C43.2896 12.4911 43.4396 13.1558 43.3854 13.7024C43.3854 13.7024 43.0333 13.6089 41.9552 13.6089C39.417 13.6089 38.1343 14.7684 38.1343 16.6272C38.1343 18.3899 39.5745 19.126 40.7882 19.126C42.5585 19.126 43.3363 17.932 43.5774 17.3633C43.7426 16.9694 43.772 16.7059 43.9224 16.7059C44.0921 16.7059 44.0329 16.8954 44.0232 17.2869C44.0085 17.9738 44.0405 18.4908 44.1463 18.929H46.4976V14.6896C46.4976 12.0406 45.5669 10.1129 42.7405 10.1129V10.1129ZM41.9797 16.9152C41.2338 17.0875 40.8497 16.8562 40.8497 16.3613C40.8497 15.6818 41.5514 15.4086 42.5459 15.4086C42.9867 15.4086 43.4001 15.4479 43.4001 15.4479C43.4026 15.7384 42.7749 16.7306 41.9797 16.9152Z" fill="#637695"/>
<path d="M51.6279 7.69775H54.7447V18.9314H51.6279V7.69775Z" fill="#637695"/>
<path d="M58.1722 14.6204C58.1722 13.8449 58.8886 13.1408 60.2033 13.1408C61.6386 13.1408 62.7907 13.8351 63.0491 13.9902V10.9916C63.0491 10.9916 62.1382 10.1127 59.9003 10.1127C57.5394 10.1127 55.5747 11.5012 55.5747 14.4875C55.5747 17.4738 57.3571 19.1258 59.8907 19.1258C61.8701 19.1258 63.0516 18.0327 63.0516 18.0327V15.1892C62.6772 15.3984 61.6386 16.1247 60.2155 16.1247C58.7138 16.1247 58.1722 15.428 58.1722 14.6205V14.6204Z" fill="#637695"/>
<path d="M69.357 10.1128C67.5503 10.1128 66.8683 11.8264 66.7301 12.1291C66.5898 12.432 66.5208 12.5994 66.4078 12.5945C66.2082 12.5895 66.3486 12.2301 66.4276 11.9962C66.7276 11.0213 66.878 10.007 66.878 8.98533C66.878 8.02272 66.7473 7.70264 66.7473 7.70264H64.0591V18.9312H67.1708V14.6425C67.1708 13.9433 67.449 12.7247 68.2343 12.7247C68.8843 12.7247 69.0864 13.2097 69.0864 14.1846V18.9336H72.1982V14.3692C72.2057 12.1535 71.8389 10.1126 69.357 10.1126V10.1128Z" fill="#637695"/>
<path d="M73.2207 10.3195V18.9313H76.3329V10.3195C76.3329 10.3195 75.8081 10.6224 74.7766 10.6224C73.7476 10.6224 73.2207 10.3195 73.2207 10.3195Z" fill="#637695"/>
<path d="M76.6743 8.86243C76.6743 8.17058 75.8201 7.61176 74.7663 7.61176C73.715 7.61176 72.8608 8.17058 72.8608 8.86243C72.8608 9.5518 73.715 10.1131 74.7663 10.1131C75.8201 10.1131 76.6743 9.55176 76.6743 8.86243Z" fill="#637695"/>
<path d="M47.5073 10.3195V18.9313H50.6191V10.3195C50.6191 10.3195 50.0947 10.6224 49.0657 10.6224C48.0367 10.6224 47.5073 10.3195 47.5073 10.3195Z" fill="#637695"/>
<path d="M50.9608 8.86243C50.9608 8.17058 50.1061 7.61176 49.0549 7.61176C48.0015 7.61176 47.1494 8.17058 47.1494 8.86243C47.1494 9.5518 48.0015 10.1131 49.0549 10.1131C50.1061 10.1131 50.9608 9.55176 50.9608 8.86243Z" fill="#637695"/>
<path d="M96.4708 10.1103C94.8704 10.1103 94.1367 11.3216 93.8195 12.0035C93.6077 12.4565 93.6174 12.5895 93.4649 12.5895C93.243 12.5895 93.4279 12.2251 93.5262 11.7967C93.6468 11.3092 93.6619 10.7997 93.5733 10.3048H91.2935V21.3121H94.4052V17.8211C94.7746 18.4513 95.4565 19.1234 96.5128 19.1234C98.7653 19.1234 99.8977 17.2056 99.8977 14.6206C99.8956 11.6885 98.5388 10.1104 96.4708 10.1104V10.1103ZM95.6166 17.0802C94.9027 17.0802 94.3783 16.1718 94.3783 14.9015C94.3783 13.6681 94.9174 12.7227 95.5918 12.7227C96.4586 12.7227 96.8279 13.5228 96.8279 14.9015C96.8279 16.3367 96.488 17.0802 95.6166 17.0802Z" fill="#637695"/>
</g>
<defs>
<clipPath id="clip0_23_243">
<rect width="100" height="22.6891" fill="white"/>
</clipPath>
</defs>
</svg>
