<svg width="100" height="25" viewBox="0 0 100 25" fill="none" xmlns="http://www.w3.org/2000/svg">
<g clip-path="url(#clip0_23_187)">
<path d="M31.5263 19.7822L32.7467 16.9297C34.083 17.9193 35.8259 18.4431 37.5692 18.4431C38.8475 18.4431 39.6609 17.9485 39.6609 17.1918C39.6317 15.096 31.9621 16.726 31.9038 11.4568C31.8746 8.77891 34.2571 6.71225 37.6275 6.71225C39.6317 6.71225 41.6367 7.20725 43.06 8.34266L41.9196 11.256C40.61 10.4139 38.9925 9.82683 37.453 9.82683C36.4071 9.82683 35.7096 10.3214 35.7096 10.9622C35.7388 13.0289 43.4671 11.8935 43.5542 16.9297C43.5542 19.666 41.2296 21.5872 37.9175 21.5872C35.4775 21.5872 33.2405 21.0052 31.5259 19.7822H31.5263ZM80.1213 15.8968C79.8132 16.4442 79.3651 16.8997 78.8229 17.2168C78.2807 17.5338 77.664 17.7009 77.0359 17.701C75.0784 17.701 73.4917 16.111 73.4917 14.1497C73.4917 12.1885 75.0784 10.5985 77.0359 10.5985C77.664 10.5985 78.2807 10.7657 78.8229 11.0827C79.3651 11.3997 79.8132 11.8553 80.1213 12.4027L83.5142 10.5193C82.2434 8.24808 79.8192 6.71225 77.0359 6.71225C72.9363 6.71225 69.613 10.0418 69.613 14.1497C69.613 18.2572 72.9363 21.5872 77.0359 21.5872C79.8192 21.5872 82.2434 20.0514 83.5142 17.7802L80.1213 15.8968ZM45.7559 21.296H49.9975V0.520996H45.7563L45.7559 21.296ZM85.6563 0.520996V21.296H89.898V15.0718L94.9242 21.296H100.346L93.9542 13.9018L99.8809 7.00225H94.6917L89.898 12.7385V0.520996H85.6563ZM63.0655 7.00308V8.69183C62.3684 7.52725 60.6542 6.71225 58.853 6.71225C55.1342 6.71225 52.2 10.0018 52.2 14.1352C52.2 18.2685 55.1342 21.5872 58.853 21.5872C60.6542 21.5872 62.3684 20.7722 63.0655 19.6077V21.296H67.3071V7.00308H63.0655ZM63.0655 15.9256C62.4555 16.9443 61.1771 17.7006 59.7538 17.7006C57.7959 17.7006 56.2092 16.111 56.2092 14.1497C56.2092 12.1885 57.7959 10.5985 59.7538 10.5985C61.1771 10.5985 62.4555 11.3843 63.0655 12.4318V15.9256Z" fill="#637695"/>
<path d="M9.12583 0.0617676C7.75125 0.0617676 6.63708 1.17843 6.63708 2.55552C6.63676 2.88267 6.70087 3.20669 6.82576 3.50907C6.95066 3.81145 7.13388 4.08626 7.36499 4.31783C7.59609 4.5494 7.87054 4.73318 8.17266 4.85868C8.47479 4.98418 8.79868 5.04894 9.12583 5.04927H11.615V2.55552C11.6156 1.89476 11.3536 1.26084 10.8868 0.79318C10.42 0.325523 9.78659 0.0624303 9.12583 0.0617676ZM9.12583 6.71177H2.48875C1.11417 6.71177 0 7.82843 0 9.20593C0 10.583 1.11417 11.6997 2.48875 11.6997H9.12625C10.5004 11.6997 11.615 10.583 11.615 9.20593C11.615 7.82843 10.5004 6.71177 9.12583 6.71177Z" fill="#637695"/>
<path d="M24.8894 9.20593C24.8894 7.82843 23.7748 6.71177 22.4002 6.71177C21.0256 6.71177 19.9115 7.82843 19.9115 9.20593V11.6997H22.4002C23.061 11.699 23.6944 11.4359 24.1612 10.9683C24.628 10.5006 24.8899 9.86669 24.8894 9.20593ZM18.2523 9.20593V2.55552C18.2528 1.89476 17.9909 1.26084 17.5241 0.79318C17.0573 0.325523 16.4239 0.0624303 15.7631 0.0617676C14.3885 0.0617676 13.2744 1.17843 13.2744 2.55552V9.20552C13.2744 10.5834 14.3885 11.7001 15.7631 11.7001C16.4239 11.6994 17.0573 11.4363 17.5241 10.9687C17.9909 10.501 18.2528 9.86711 18.2523 9.20635" fill="#637695"/>
<path d="M15.7631 25.0002C16.4239 24.9996 17.0573 24.7365 17.5241 24.2688C17.9909 23.8012 18.2528 23.1672 18.2523 22.5065C18.2528 21.8457 17.9909 21.2118 17.5241 20.7441C17.0573 20.2765 16.4239 20.0134 15.7631 20.0127H13.2744V22.5065C13.2744 23.8836 14.3885 25.0002 15.7631 25.0002ZM15.7631 18.3502H22.4006C23.7748 18.3502 24.8894 17.2336 24.8894 15.8561C24.8899 15.1953 24.628 14.5614 24.1612 14.0937C23.6944 13.6261 23.061 13.363 22.4002 13.3623H15.7631C14.3885 13.3623 13.2744 14.479 13.2744 15.8561C13.274 16.1832 13.3382 16.5072 13.4631 16.8096C13.5879 17.112 13.7712 17.3868 14.0023 17.6184C14.2334 17.8499 14.5078 18.0337 14.81 18.1592C15.1121 18.2847 15.436 18.3495 15.7631 18.3498" fill="#637695"/>
<path d="M1.25576e-06 15.8561C-0.000327214 16.1832 0.0637857 16.5072 0.188679 16.8096C0.313573 17.112 0.496801 17.3868 0.727903 17.6184C0.959005 17.8499 1.23345 18.0337 1.53558 18.1592C1.83771 18.2847 2.1616 18.3495 2.48875 18.3498C3.14951 18.3491 3.78295 18.086 4.24975 17.6184C4.71654 17.1507 4.97847 16.5168 4.97792 15.8561V13.3623H2.48875C1.11417 13.3623 1.25576e-06 14.479 1.25576e-06 15.8561ZM6.63708 15.8561V22.5061C6.63708 23.8836 7.75125 25.0002 9.12583 25.0002C9.78659 24.9996 10.42 24.7365 10.8868 24.2688C11.3536 23.8012 11.6156 23.1672 11.615 22.5065V15.8561C11.6153 15.5289 11.5512 15.2048 11.4263 14.9024C11.3014 14.6 11.1181 14.3252 10.887 14.0936C10.6558 13.862 10.3813 13.6783 10.0791 13.5528C9.77696 13.4273 9.45303 13.3626 9.12583 13.3623C7.75125 13.3623 6.63708 14.479 6.63708 15.8561Z" fill="#637695"/>
</g>
<defs>
<clipPath id="clip0_23_187">
<rect width="100" height="25" fill="white"/>
</clipPath>
</defs>
</svg>
