<svg width="100" height="32" viewBox="0 0 100 32" fill="none" xmlns="http://www.w3.org/2000/svg">
<path fill-rule="evenodd" clip-rule="evenodd" d="M77.9332 7.26938C77.4941 7.26918 77.0729 7.44354 76.7623 7.75413C76.4517 8.0647 76.277 8.48606 76.2768 8.92549C76.2766 9.36494 76.4509 9.78645 76.7611 10.0973C77.0715 10.4082 77.4925 10.583 77.9316 10.5832C78.3709 10.5832 78.7921 10.4085 79.1029 10.0977C79.4135 9.78678 79.588 9.36515 79.588 8.92549C79.588 8.48584 79.4135 8.06421 79.1029 7.75333C78.7921 7.44244 78.3709 7.26779 77.9316 7.26779L77.9332 7.26938ZM79.0744 11.8588H76.7664C76.7218 11.8593 76.679 11.8773 76.6475 11.9092C76.6159 11.941 76.5982 11.984 76.5982 12.0288V22.11C76.5982 22.2053 76.6729 22.28 76.7664 22.28H79.076C79.121 22.28 79.1642 22.2621 79.1962 22.2301C79.2279 22.1984 79.2458 22.1552 79.2458 22.11V12.0288C79.2458 11.9837 79.2279 11.9405 79.1962 11.9086C79.1642 11.8767 79.121 11.8588 79.076 11.8588H79.0744ZM84.2078 11.8684V11.5506C84.2078 10.6102 84.568 10.1908 85.376 10.1908C85.857 10.1908 86.2428 10.2861 86.6776 10.4323C86.7031 10.4409 86.7304 10.4433 86.757 10.4393C86.7837 10.4352 86.809 10.4248 86.8308 10.4089C86.8524 10.393 86.8701 10.3721 86.8821 10.348C86.8941 10.3239 86.9002 10.2972 86.8998 10.2702V8.32421C86.8996 8.28784 86.888 8.25248 86.8662 8.22331C86.8444 8.19415 86.8141 8.1727 86.7792 8.16217C86.157 7.97193 85.5092 7.87869 84.8585 7.88576C82.7269 7.88576 81.5998 9.08832 81.5998 11.3616V11.8509H80.4902C80.4456 11.8509 80.4027 11.8686 80.3707 11.9001C80.3389 11.9316 80.321 11.9745 80.3204 12.0193V14.0161C80.3204 14.1099 80.3968 14.1861 80.4902 14.1861H81.5998V22.1132C81.5998 22.2053 81.6744 22.2817 81.768 22.2817H84.0776C84.1224 22.2813 84.1652 22.2631 84.1968 22.2314C84.2281 22.1994 84.2458 22.1564 84.2458 22.1116V14.1845H86.4014L89.7047 22.1116C89.33 22.9426 88.9617 23.1094 88.4585 23.1094C88.0507 23.1094 87.622 22.987 87.1839 22.747C87.1638 22.7362 87.1416 22.7295 87.1186 22.7273C87.0957 22.725 87.0725 22.7275 87.0505 22.7344C87.0285 22.7419 87.0082 22.754 86.9909 22.7699C86.9737 22.7857 86.9599 22.8051 86.9505 22.8265L86.168 24.5438C86.1499 24.5825 86.1471 24.6269 86.1605 24.6676C86.1737 24.7083 86.2021 24.7424 86.2395 24.7629C87.057 25.2063 87.7951 25.3953 88.7061 25.3953C90.411 25.3953 91.3538 24.601 92.1839 22.4611L96.1902 12.1003C96.2008 12.0746 96.2047 12.0468 96.2019 12.0192C96.199 11.9916 96.1892 11.9652 96.1737 11.9423C96.1583 11.9193 96.1373 11.9005 96.1126 11.8877C96.0882 11.8748 96.0609 11.8681 96.0332 11.8684H93.63C93.5949 11.8687 93.5609 11.8799 93.5326 11.9004C93.5041 11.9209 93.4827 11.9496 93.4713 11.9827L91.0078 19.0218L88.3094 11.978C88.2974 11.9459 88.276 11.9182 88.2479 11.8986C88.2198 11.879 88.1864 11.8685 88.1522 11.8684H84.2078ZM75.3554 11.8588H72.8157V9.2583C72.8157 9.23606 72.8112 9.21403 72.8027 9.1935C72.7941 9.17297 72.7817 9.15433 72.7658 9.13867C72.7501 9.12301 72.7314 9.11065 72.7108 9.10228C72.6902 9.0939 72.668 9.08971 72.6458 9.08991H70.3363C70.2919 9.09032 70.2493 9.1082 70.2177 9.13969C70.1864 9.17118 70.1685 9.21378 70.168 9.2583V11.8588H69.057C69.0348 11.8588 69.0126 11.8632 68.9923 11.8718C68.9717 11.8804 68.9532 11.8929 68.9375 11.9087C68.9218 11.9245 68.9094 11.9433 68.901 11.9639C68.8927 11.9845 68.8886 12.0066 68.8888 12.0288V14.0146C68.8888 14.1083 68.965 14.1845 69.057 14.1845H70.168V19.3221C70.168 21.4 71.1998 22.4515 73.2379 22.4515C74.0664 22.4515 74.7522 22.2817 75.3998 21.9147C75.4261 21.9 75.4477 21.8784 75.4628 21.8525C75.4778 21.8265 75.4858 21.7969 75.4856 21.767V19.8765C75.486 19.8475 75.4788 19.8189 75.465 19.7934C75.4511 19.768 75.431 19.7465 75.4063 19.7312C75.3817 19.7159 75.3536 19.7071 75.3247 19.7059C75.2957 19.7046 75.267 19.7108 75.2412 19.724C74.7968 19.948 74.3664 20.0512 73.8856 20.0512C73.1442 20.0512 72.8141 19.716 72.8141 18.9614V14.1845H75.3538C75.3762 14.1847 75.3984 14.1805 75.419 14.172C75.4397 14.1636 75.4585 14.1511 75.4744 14.1352C75.4902 14.1194 75.5027 14.1006 75.5112 14.0799C75.5196 14.0591 75.5238 14.0369 75.5236 14.0146V12.0288C75.5238 12.0066 75.5196 11.9845 75.5112 11.9639C75.5029 11.9433 75.4907 11.9245 75.475 11.9087C75.4593 11.8929 75.4408 11.8804 75.4202 11.8718C75.3996 11.8632 75.3776 11.8588 75.3554 11.8588ZM63.1792 11.6476C60.068 11.6476 57.6283 14.0463 57.6283 17.1076C57.6283 20.137 60.0507 22.5088 63.1412 22.5088C66.2634 22.5088 68.7094 20.1195 68.7094 17.0694C68.7094 14.0289 66.2809 11.6476 63.1792 11.6476ZM63.1792 20.1656C61.5236 20.1656 60.2744 18.8344 60.2744 17.0678C60.2744 15.2966 61.4809 14.0114 63.1412 14.0114C64.8078 14.0114 66.0617 15.3426 66.0617 17.1091C66.0617 18.8804 64.8507 20.1656 63.1792 20.1656ZM52.0458 11.6476C50.7442 11.6476 49.6776 12.1607 48.7982 13.2107V12.0288C48.7982 11.984 48.7807 11.941 48.7491 11.9092C48.7175 11.8773 48.6748 11.8593 48.63 11.8588H46.3204C46.2758 11.8593 46.233 11.8773 46.2014 11.9092C46.1699 11.941 46.1522 11.984 46.1522 12.0288V25.1666C46.1522 25.2587 46.2283 25.3348 46.3204 25.3348H48.63C48.6746 25.3344 48.7171 25.3167 48.7485 25.2851C48.7801 25.2536 48.7978 25.211 48.7982 25.1666V21.0204C49.6792 22.0067 50.7458 22.4896 52.0458 22.4896C54.4617 22.4896 56.9078 20.6279 56.9078 17.0694C56.9078 13.511 54.4634 11.6476 52.0458 11.6476ZM54.2236 17.0694C54.2236 18.8804 53.1078 20.1465 51.511 20.1465C49.9316 20.1465 48.7412 18.8232 48.7412 17.0694C48.7412 15.3156 49.9316 13.9923 51.511 13.9923C53.0823 13.9923 54.2253 15.2854 54.2253 17.0694H54.2236ZM40.8332 14.1941C38.2554 13.5777 37.7968 13.1456 37.7968 12.2385C37.7968 11.3807 38.6031 10.804 39.8031 10.804C40.965 10.804 42.119 11.2409 43.3269 12.1432C43.3448 12.1565 43.3652 12.1661 43.387 12.1715C43.4088 12.1769 43.4314 12.1779 43.4534 12.1745C43.4756 12.1711 43.4968 12.1633 43.5159 12.1517C43.5351 12.1401 43.5518 12.1248 43.565 12.1067L44.8253 10.329C44.8497 10.2939 44.8601 10.2508 44.8542 10.2084C44.8483 10.166 44.8265 10.1274 44.7935 10.1003C43.3554 8.94376 41.7348 8.38299 39.8412 8.38299C37.0554 8.38299 35.111 10.0542 35.111 12.4482C35.111 15.0138 36.7888 15.9225 39.6888 16.623C42.1554 17.1917 42.5729 17.6683 42.5729 18.5214C42.5729 19.465 41.7316 20.0512 40.3744 20.0512C38.8697 20.0512 37.6428 19.5429 36.268 18.3546C36.2336 18.3253 36.1894 18.3105 36.1442 18.3133C36.1218 18.315 36.1 18.3213 36.0803 18.3316C36.0603 18.342 36.0426 18.3563 36.0283 18.3737L34.6157 20.0544C34.587 20.0879 34.5725 20.1315 34.5758 20.1756C34.579 20.2197 34.5998 20.2606 34.6332 20.2895C36.1896 21.7008 38.2171 22.4788 40.3173 22.4707C43.3173 22.4707 45.257 20.8297 45.257 18.2911C45.257 16.1449 43.976 14.9582 40.8332 14.1925V14.1941ZM15.0903 0.484497C11.1289 0.484497 7.32976 2.05944 4.52861 4.86287C1.72747 7.66629 0.153809 11.4685 0.153809 15.4332C0.153809 19.3978 1.72747 23.2 4.52861 26.0035C7.32976 28.8069 11.1289 30.3819 15.0903 30.3819C19.0517 30.3819 22.8509 28.8069 25.652 26.0035C28.4532 23.2 30.0269 19.3978 30.0269 15.4332C30.0269 11.4685 28.4532 7.66629 25.652 4.86287C22.8509 2.05944 19.0517 0.484497 15.0903 0.484497ZM21.9412 22.045C21.8774 22.1497 21.7939 22.2407 21.6949 22.313C21.5962 22.3851 21.4839 22.4373 21.365 22.466C21.2458 22.4947 21.1224 22.4998 21.0014 22.4806C20.8805 22.4615 20.7646 22.4187 20.6601 22.3548C17.1522 20.2101 12.7395 19.7256 7.53953 20.9138C7.42039 20.9411 7.29707 20.9446 7.1766 20.924C7.05613 20.9037 6.94088 20.8595 6.83741 20.7945C6.73393 20.7295 6.64428 20.6446 6.57356 20.545C6.50283 20.4452 6.45244 20.3325 6.42523 20.2133C6.39804 20.094 6.39456 19.9706 6.41501 19.85C6.43548 19.7295 6.47947 19.6141 6.54446 19.5106C6.60947 19.407 6.69422 19.3173 6.79385 19.2465C6.8935 19.1757 7.00611 19.1253 7.12523 19.0981C12.8141 17.7954 17.6951 18.3562 21.6316 20.7646C22.0697 21.033 22.2078 21.6065 21.9412 22.045ZM23.7664 17.9749C23.6049 18.2379 23.3458 18.4261 23.0458 18.4982C22.746 18.5702 22.4298 18.5203 22.1664 18.3594C18.1522 15.8891 12.0316 15.1742 7.28238 16.6167C6.99342 16.6853 6.6892 16.641 6.43173 16.4929C6.17426 16.3448 5.98291 16.104 5.89668 15.8196C5.81045 15.5352 5.83584 15.2286 5.96768 14.9623C6.09951 14.6959 6.32786 14.49 6.60619 14.3863C12.0316 12.7389 18.7744 13.538 23.3839 16.372C23.5145 16.4521 23.6279 16.5571 23.7179 16.6811C23.808 16.8051 23.8727 16.9456 23.9084 17.0946C23.944 17.2436 23.9499 17.3982 23.9259 17.5495C23.9019 17.7009 23.8483 17.8459 23.768 17.9765L23.7664 17.9749ZM23.9269 13.7366C19.111 10.8755 11.1681 10.6118 6.57285 12.0098C6.39652 12.066 6.21075 12.0867 6.02635 12.0705C5.84195 12.0544 5.66261 12.0017 5.49876 11.9155C5.33489 11.8294 5.18975 11.7115 5.07181 11.5687C4.95387 11.4259 4.86546 11.2611 4.81171 11.0838C4.75796 10.9066 4.73994 10.7204 4.75874 10.5361C4.77751 10.3518 4.83271 10.1731 4.9211 10.0103C5.00949 9.84753 5.12933 9.70399 5.27365 9.58798C5.41796 9.47197 5.58387 9.38584 5.76175 9.33456C11.0364 7.73008 19.8078 8.04144 25.3491 11.333C25.6676 11.5222 25.8982 11.8303 25.99 12.1896C26.0817 12.5489 26.0269 12.9299 25.8379 13.2489C25.6489 13.5678 25.341 13.7985 24.9821 13.8903C24.623 13.9821 24.2424 13.9273 23.9236 13.7381" fill="#637695"/>
</svg>
