<svg width="100" height="21" viewBox="0 0 100 21" fill="none" xmlns="http://www.w3.org/2000/svg">
<g clip-path="url(#clip0_23_205)">
<path fill-rule="evenodd" clip-rule="evenodd" d="M17.8175 0.0834961H2.56428C1.25209 0.0834961 0.187842 1.1463 0.186054 2.45849V17.6893C0.183517 18.3216 0.432948 18.929 0.879222 19.3771C1.3255 19.8252 1.93187 20.077 2.56428 20.077H17.8175C18.4493 20.0763 19.0549 19.824 19.5005 19.376C19.9461 18.928 20.195 18.3211 20.1925 17.6893V2.45849C20.1907 1.14755 19.1284 0.0852612 17.8175 0.0834961ZM8.81431 14.4841C8.81344 14.6955 8.72844 14.8978 8.57804 15.0464C8.42772 15.195 8.22439 15.2775 8.01296 15.2759H4.67967C4.24369 15.274 3.89121 14.9201 3.89121 14.4841V4.56426C3.89121 4.12829 4.24369 3.77436 4.67967 3.77259H8.01296C8.44947 3.77436 8.80288 4.12777 8.80463 4.56426L8.81431 14.4841ZM16.5066 9.92967C16.5066 10.1413 16.4218 10.3441 16.2713 10.4928C16.1207 10.6417 15.9169 10.7239 15.7053 10.7214H12.372C11.9355 10.7196 11.5821 10.3662 11.5803 9.92967V4.56426C11.5821 4.12777 11.9355 3.77436 12.372 3.77259H15.7053C16.1413 3.77436 16.4938 4.12829 16.4938 4.56426L16.5066 9.92967Z" fill="#637695"/>
<path d="M41.6409 1.54828V5.41366H37.0608V20.0772H32.6441V5.41366H28.064V1.54828H41.6409Z" fill="#637695"/>
<path d="M47.263 20.0771H43.1797V5.65402H47.263V8.41688C48.0387 6.47133 49.2791 5.31428 51.4874 5.4553V9.72775C48.6028 9.50339 47.263 10.2085 47.263 12.5194V20.0771Z" fill="#637695"/>
<path d="M73.795 20.1893C71.1187 20.1893 69.436 18.9072 69.436 15.8751V0.0834961H73.5482V15.3111C73.5482 16.1861 74.1251 16.497 74.8302 16.497C75.0337 16.5011 75.2371 16.4914 75.4392 16.4681V20.0226C74.9014 20.1536 74.3481 20.2097 73.795 20.1893Z" fill="#637695"/>
<path d="M82.3717 20.1893C79.6955 20.1893 78.0098 18.9072 78.0098 15.8751V0.0834961H82.1217V15.3111C82.1217 16.1861 82.7018 16.497 83.4201 16.497C83.6225 16.5012 83.8248 16.4915 84.0256 16.4681V20.0226C83.4852 20.1548 82.928 20.2109 82.3717 20.1893Z" fill="#637695"/>
<path d="M85.9971 12.8592C85.9971 8.40402 88.5614 5.35596 92.978 5.35596C97.3947 5.35596 99.9042 8.39442 99.9042 12.8592C99.9042 17.3239 97.3653 20.4169 92.978 20.4169C88.5899 20.4169 85.9971 17.2854 85.9971 12.8592ZM90.0002 12.8592C90.0002 15.029 90.9106 16.7502 92.978 16.7502C95.0455 16.7502 95.9042 15.029 95.9042 12.8592C95.9042 10.6893 95.0225 9.01299 92.978 9.01299C90.9328 9.01299 90.0002 10.6861 90.0002 12.8592Z" fill="#637695"/>
<path d="M57.0001 14.1636C58.1433 14.2892 59.2923 14.3566 60.4424 14.3655C63.5706 14.3655 66.2116 13.5258 66.2116 10.4969C66.2116 7.55782 63.4969 5.34949 60.2309 5.34949C55.8334 5.34949 53.0161 8.53857 53.0161 12.9937C53.0161 17.6187 55.4456 20.3655 60.936 20.3655C62.5648 20.3788 64.1819 20.0897 65.7052 19.5129V16.0579C64.2949 16.5098 62.7084 16.9585 61.0802 16.9585C58.8943 16.9585 57.3719 16.2405 57.0001 14.1636ZM60.1475 8.4969C61.3046 8.4969 62.2341 9.28214 62.2341 10.3559C62.2341 11.7373 60.7757 12.17 59.0963 12.17C58.3814 12.1667 57.6679 12.1099 56.9616 12.0002C57.015 11.3267 57.2082 10.6717 57.5289 10.0771C58.0529 9.11746 59.0543 8.51571 60.1475 8.50333V8.4969Z" fill="#637695"/>
</g>
<defs>
<clipPath id="clip0_23_205">
<rect width="100" height="20.6349" fill="white"/>
</clipPath>
</defs>
</svg>
