<svg width="1919" height="800" viewBox="0 0 1919 800" fill="none" xmlns="http://www.w3.org/2000/svg">
<path d="M400 800C347.471 800 295.457 789.654 246.927 769.552C198.396 749.45 154.301 719.986 117.157 682.843C80.0138 645.699 50.55 601.604 30.4482 553.073C10.3463 504.543 -2.20768e-05 452.529 -1.74846e-05 400C-1.28923e-05 347.471 10.3463 295.457 30.4482 246.927C50.5501 198.396 80.0139 154.301 117.157 117.157C154.301 80.0138 198.396 50.5501 246.927 30.4482C295.457 10.3463 347.471 1.05962e-05 400 1.74846e-05L400 400L400 800Z" fill="#050411"/>
<path d="M803.932 630.311C768.522 630.311 736.364 622.964 707.458 608.27C678.792 593.335 656.029 571.294 639.167 542.146C622.546 512.999 614.235 477.348 614.235 435.193C614.235 393.761 622.305 358.23 638.444 328.602C654.824 298.732 677.227 275.968 705.651 260.311C734.316 244.412 766.836 236.463 803.21 236.463C837.174 236.463 866.683 243.208 891.735 256.697C917.028 270.187 936.901 288.494 951.354 311.619C966.048 334.503 975.081 360.278 978.454 388.943H887.038C884.629 374.49 880.052 361.723 873.307 350.643C866.803 339.321 857.65 330.288 845.846 323.543C834.284 316.798 820.312 313.426 803.932 313.426C784.18 313.426 767.077 318.364 752.624 328.24C738.411 337.876 727.572 351.727 720.104 369.793C712.637 387.859 708.903 409.057 708.903 433.387C708.903 458.439 712.757 479.878 720.465 497.703C728.174 515.529 739.134 529.259 753.346 538.895C767.559 548.289 784.421 552.986 803.932 552.986C820.072 552.986 833.922 549.855 845.485 543.592C857.047 537.088 866.201 528.416 872.946 517.576C879.691 506.736 884.508 494.572 887.399 481.082H978.815C975.202 509.507 966.169 535.04 951.715 557.684C937.262 580.086 917.389 597.791 892.096 610.799C867.044 623.807 837.656 630.311 803.932 630.311ZM1128.4 622H1033.38V100.965H1128.4V622ZM1303.65 628.504C1280.28 628.504 1259.57 624.168 1241.5 615.496C1223.68 606.824 1209.7 594.057 1199.59 577.195C1189.47 560.333 1184.41 539.858 1184.41 515.77C1184.41 490.958 1190.07 470.483 1201.39 454.344C1212.71 437.964 1229.7 425.197 1252.34 416.043C1275.22 406.889 1304.49 400.506 1340.14 396.893L1421.8 389.305V366.18C1421.8 355.581 1419.03 346.186 1413.49 337.996C1408.19 329.565 1400.36 323.182 1390.01 318.846C1379.89 314.269 1367.72 311.98 1353.51 311.98C1340.02 311.98 1328.22 314.269 1318.1 318.846C1308.23 323.182 1300.4 329.445 1294.62 337.635C1288.83 345.584 1285.22 355.219 1283.78 366.541H1192.72C1195.13 339.803 1203.08 316.678 1216.57 297.166C1230.3 277.654 1248.85 262.719 1272.21 252.361C1295.82 242.003 1323.28 236.824 1354.6 236.824C1387.12 236.824 1415.3 242.003 1439.15 252.361C1462.99 262.479 1481.42 277.293 1494.43 296.805C1507.44 316.316 1513.94 339.562 1513.94 366.541V622H1421.8V565.994H1420C1410.6 584.542 1395.91 599.598 1375.91 611.16C1356.16 622.723 1332.07 628.504 1303.65 628.504ZM1333.28 556.961C1351.34 556.961 1367.12 552.866 1380.61 544.676C1394.1 536.486 1404.34 525.405 1411.32 511.434C1418.31 497.221 1421.8 481.443 1421.8 464.1V450.73L1344.12 458.318C1320.75 460.486 1303.29 465.906 1291.73 474.578C1280.4 483.009 1274.74 494.572 1274.74 509.266C1274.74 519.142 1277.15 527.693 1281.97 534.92C1286.79 541.906 1293.53 547.326 1302.2 551.18C1311.12 555.034 1321.47 556.961 1333.28 556.961ZM1630.29 762.557L1682.68 623.807L1537.43 244.773H1634.63L1704 451.092C1706.41 458.077 1708.58 465.184 1710.5 472.41C1712.67 479.396 1714.72 486.141 1716.65 492.645C1720.02 504.207 1723.03 515.529 1725.68 526.609H1728.21C1735.2 499.63 1742.42 474.458 1749.89 451.092L1817.82 244.773H1915.38L1720.26 762.557H1630.29Z" fill="black"/>
</svg>
